<svg width="1280" height="720" viewBox="0 0 1280 720" fill="none" xmlns="http://www.w3.org/2000/svg" role="img" aria-labelledby="title desc">
  <title id="title">Talk to Your Docs app preview</title>
  <desc id="desc">A stylized preview of a documentation chat interface.</desc>
  <rect width="1280" height="720" fill="#F8FAF9"/>
  <rect x="64" y="60" width="1152" height="600" rx="28" fill="#101820"/>
  <rect x="94" y="96" width="284" height="528" rx="18" fill="#17232C"/>
  <rect x="414" y="96" width="772" height="528" rx="18" fill="#FFFFFF"/>
  <rect x="124" y="132" width="118" height="18" rx="9" fill="#F7FAFC"/>
  <rect x="124" y="184" width="224" height="48" rx="8" fill="#21313B"/>
  <rect x="144" y="201" width="134" height="14" rx="7" fill="#8BD7C2"/>
  <rect x="124" y="254" width="224" height="48" rx="8" fill="#21313B"/>
  <rect x="144" y="271" width="166" height="14" rx="7" fill="#E8C16A"/>
  <rect x="124" y="324" width="224" height="48" rx="8" fill="#21313B"/>
  <rect x="144" y="341" width="118" height="14" rx="7" fill="#F2A7A0"/>
  <rect x="124" y="534" width="224" height="54" rx="8" fill="#1F8A70"/>
  <rect x="144" y="554" width="96" height="14" rx="7" fill="#FFFFFF"/>
  <text x="454" y="158" fill="#101820" font-family="Inter, Arial, sans-serif" font-size="42" font-weight="800">Talk to Your Docs</text>
  <rect x="454" y="202" width="340" height="16" rx="8" fill="#DCE8E4"/>
  <rect x="454" y="230" width="486" height="16" rx="8" fill="#E9EFEA"/>
  <rect x="454" y="302" width="510" height="78" rx="12" fill="#F1F7F4" stroke="#D5E3DF"/>
  <rect x="484" y="326" width="248" height="13" rx="6.5" fill="#1F8A70"/>
  <rect x="484" y="352" width="404" height="11" rx="5.5" fill="#9CAAA4"/>
  <rect x="612" y="414" width="484" height="88" rx="12" fill="#101820"/>
  <rect x="642" y="442" width="242" height="13" rx="6.5" fill="#8BD7C2"/>
  <rect x="642" y="470" width="382" height="11" rx="5.5" fill="#DCE8E4"/>
  <rect x="454" y="542" width="596" height="46" rx="23" fill="#FFFFFF" stroke="#C9D8D3"/>
  <rect x="482" y="558" width="310" height="14" rx="7" fill="#BAC8C4"/>
  <circle cx="1112" cy="565" r="17" fill="#1F8A70"/>
</svg>

